<svg xmlns="http://www.w3.org/2000/svg" viewBox="0 0 236.4 266.32"><defs><style>.cls-1{fill:#b5ce45;}.cls-2{fill:#afabcc;}</style></defs><g id="Layer_2" data-name="Layer 2"><g id="Layer_4" data-name="Layer 4"><path class="cls-1" d="M69.09,249.63c-5.4-16.12-31.36-93.85,33.82-138.3,13.7-9.35,47-22.86,74.54-35.18,42.73-19.12,37.5-19.31,44.62-26,2.6-2.45,4.62-5.64,6.4,0s19.11,101-3.92,149.51c-19.38,40.78-39.31,60.06-107.81,66.38-14.22,1.48-19.06-3.16-20.25-27.18S94.84,150.38,183,123.41C69.69,134.08,70.83,216.1,73.13,247,73.93,257.71,70.48,253.78,69.09,249.63Z"/><path class="cls-2" d="M130.89,84.2c-14.11,6.36-26.27,12.29-33.78,17.41C80.53,112.92,68,127.18,59.9,144a112,112,0,0,0-10.26,36.5c-7.71-23.38-7.88-55.83,16.7-98.09C5,153,31.13,204.16,52.73,230.32c1,4.71,2.12,8.93,3.15,12.5-20.55-12.68-69.19-49-52.43-115.16,4-15.68,19.11-47.4,30.93-74.42C52.73,11.3,49,14.69,49.94,5.24c.35-3.45-.14-7,4.48-4.26C58.33,3.31,107.75,42.52,130.89,84.2Z"/></g></g></svg>